<svg width="51" height="46" viewBox="0 0 51 46" fill="none" xmlns="http://www.w3.org/2000/svg">
<path d="M25.3617 17.8756V27.2506" stroke="black" stroke-width="2" stroke-linecap="round" stroke-linejoin="round"/>
<path d="M22.1274 2.87559L1.50242 38.5006C1.17384 39.0697 1.00058 39.7152 1 40.3723C0.999419 41.0294 1.17153 41.6752 1.4991 42.2449C1.82667 42.8146 2.29819 43.2882 2.86642 43.6182C3.43466 43.9483 4.07965 44.1233 4.73679 44.1256H45.9868C46.6439 44.1233 47.2889 43.9483 47.8572 43.6182C48.4254 43.2882 48.8969 42.8146 49.2245 42.2449C49.5521 41.6752 49.7242 41.0294 49.7236 40.3723C49.723 39.7152 49.5497 39.0697 49.2212 38.5006L28.5962 2.87559C28.2701 2.30575 27.7992 1.83218 27.2312 1.50282C26.6633 1.17346 26.0184 1 25.3618 1C24.7052 1 24.0603 1.17346 23.4924 1.50282C22.9244 1.83218 22.4535 2.30575 22.1274 2.87559Z" stroke="black" stroke-width="2" stroke-linecap="round" stroke-linejoin="round"/>
<path d="M25.3617 38.5006C26.915 38.5006 28.1742 37.2414 28.1742 35.6881C28.1742 34.1348 26.915 32.8756 25.3617 32.8756C23.8084 32.8756 22.5492 34.1348 22.5492 35.6881C22.5492 37.2414 23.8084 38.5006 25.3617 38.5006Z" fill="black"/>
</svg>
