<svg width="10" height="11" viewBox="0 0 10 11" fill="none" xmlns="http://www.w3.org/2000/svg">
<path d="M9.28125 0.687504H6.70312L6.50117 0.285746C6.45839 0.199854 6.39249 0.127604 6.31089 0.0771237C6.22928 0.0266431 6.13521 -6.50539e-05 6.03926 3.76679e-06H3.58359C3.48785 -0.000364272 3.39395 0.0262443 3.31263 0.0767811C3.23132 0.127318 3.16588 0.199738 3.12383 0.285746L2.92187 0.687504H0.34375C0.252582 0.687504 0.165148 0.72372 0.100682 0.788186C0.0362164 0.852651 0 0.940085 0 1.03125L0 1.71875C0 1.80992 0.0362164 1.89736 0.100682 1.96182C0.165148 2.02629 0.252582 2.0625 0.34375 2.0625H9.28125C9.37241 2.0625 9.45985 2.02629 9.52431 1.96182C9.58878 1.89736 9.625 1.80992 9.625 1.71875V1.03125C9.625 0.940085 9.58878 0.852651 9.52431 0.788186C9.45985 0.72372 9.37241 0.687504 9.28125 0.687504ZM1.14297 10.0332C1.15936 10.295 1.27492 10.5407 1.46611 10.7204C1.65729 10.9 1.90975 11 2.17207 11H7.45293C7.71525 11 7.9677 10.9 8.15889 10.7204C8.35008 10.5407 8.46563 10.295 8.48203 10.0332L8.9375 2.75H0.6875L1.14297 10.0332Z" fill="white"/>
</svg>
